<?xml version="1.0" standalone="no"?>
<!DOCTYPE svg PUBLIC "-//W3C//DTD SVG 20010904//EN"
 "http://www.w3.org/TR/2001/REC-SVG-20010904/DTD/svg10.dtd">
<svg version="1.0" xmlns="http://www.w3.org/2000/svg"
 width="768.000000pt" height="768.000000pt" viewBox="0 0 768.000000 768.000000"
 preserveAspectRatio="xMidYMid meet" opacity=".33">
<metadata>
Created by potrace 1.10, written by Peter Selinger 2001-2011
</metadata>
<g transform="translate(0.000000,768.000000) scale(0.100000,-0.100000)"
 stroke="none">
<path d="M1640 7397 c0 -207 -3 -286 -12 -295 -9 -9 -95 -12 -326 -12 -197 0
-321 -4 -333 -10 -19 -11 -19 -49 -19 -2528 0 -1945 3 -2521 12 -2530 9 -9 85
-12 279 -12 230 0 270 -2 283 -16 14 -13 16 -55 16 -297 0 -155 4 -288 8 -295
7 -10 127 -13 585 -12 454 0 577 -2 584 -12 4 -7 10 -152 13 -323 l5 -310 333
-5 c281 -4 334 -7 342 -20 6 -9 10 -163 10 -367 l0 -353 1005 0 1005 0 0 684
c0 537 3 687 13 693 6 4 152 10 322 13 l310 5 3 254 c1 167 6 259 13 268 9 10
72 13 300 13 275 0 289 1 299 19 7 14 10 827 10 2558 0 2281 -2 2541 -16 2561
-15 22 -17 22 -289 22 -150 0 -280 3 -289 6 -14 5 -16 41 -16 295 l0 289
-2225 0 -2225 0 0 -283z m4018 -79 c9 -9 12 -88 12 -294 0 -244 2 -285 16
-298 13 -14 55 -16 304 -16 l289 0 6 -42 c3 -24 3 -441 0 -928 -3 -487 -7
-1438 -10 -2115 -4 -957 -8 -1231 -18 -1237 -6 -4 -139 -8 -293 -8 -222 0
-284 -3 -293 -13 -7 -9 -12 -111 -13 -308 l-3 -294 -294 -3 c-197 -1 -299 -6
-308 -13 -11 -9 -13 -123 -13 -609 0 -492 -2 -600 -14 -609 -9 -8 -176 -10
-602 -9 l-589 3 -3 301 c-2 251 -5 304 -17 314 -11 9 -89 12 -302 11 -159 -1
-294 3 -302 8 -11 7 -13 59 -12 278 1 165 -2 279 -8 296 l-11 27 -599 0 c-389
0 -602 4 -606 10 -3 5 -6 138 -5 294 0 248 -1 286 -15 300 -14 14 -53 16 -299
16 -215 0 -286 3 -293 13 -12 14 -29 4271 -18 4300 7 16 30 17 294 17 210 0
290 3 299 12 9 9 12 88 12 294 0 244 2 285 16 298 14 14 195 16 1848 16 1411
0 1835 -3 1844 -12z"/>
<path d="M1965 6685 c-17 -14 -29 -2427 -12 -2444 17 -17 3697 -15 3720 2 16
11 17 36 12 302 -3 160 -8 704 -10 1210 -4 578 -9 923 -15 929 -14 14 -3679
15 -3695 1z m1229 -1231 c3 -9 6 -146 6 -304 0 -287 0 -289 -22 -304 -19 -14
-64 -16 -290 -16 -149 0 -278 4 -292 10 l-26 10 0 303 c0 167 3 307 7 310 3 4
142 7 309 7 266 0 303 -2 308 -16z m1860 0 c10 -26 7 -588 -4 -604 -8 -13 -53
-15 -305 -15 -252 0 -297 2 -305 15 -11 17 -14 603 -3 613 3 4 142 7 309 7
266 0 303 -2 308 -16z"/>
<path d="M3481 3622 c-633 -1 -888 -5 -898 -13 -18 -16 -19 -599 -1 -617 9 -9
297 -12 1235 -12 1198 0 1223 0 1233 19 16 30 14 583 -2 604 -16 20 -269 23
-1567 19z"/>
</g>
</svg>
